<?xml version="1.0" encoding="iso-8859-1"?>
<!-- Generator: Adobe Illustrator 19.1.0, SVG Export Plug-In . SVG Version: 6.00 Build 0)  -->
<svg version="1.1" xmlns="http://www.w3.org/2000/svg" xmlns:xlink="http://www.w3.org/1999/xlink" x="0px" y="0px"
	 viewBox="0 0 106 104.286" style="enable-background:new 0 0 106 104.286;" xml:space="preserve">
<g id="Layer_1">
	<g>
		<path style="fill:#FCCDB1;" d="M82.778,51.459c0,22.91-13.789,41.482-30.8,41.482s-30.8-18.572-30.8-41.482
			s6.065-36.006,30.828-36.006C69.017,15.453,82.778,28.549,82.778,51.459z"/>
		<ellipse style="fill:#FCCDB1;" cx="20.152" cy="50.379" rx="4.818" ry="8.351"/>
		<ellipse style="fill:#FCCDB1;" cx="83.233" cy="50.379" rx="4.818" ry="8.351"/>
		<g>
			<path style="fill:#2C3E50;" d="M33.388,45.412c-0.441,0-0.86-0.259-1.044-0.691c-0.246-0.577,0.023-1.242,0.599-1.488
				l5.787-2.464l5.479,2.473c0.572,0.258,0.825,0.93,0.567,1.501c-0.257,0.569-0.928,0.826-1.5,0.567l-4.573-2.064l-4.872,2.074
				C33.688,45.383,33.537,45.412,33.388,45.412z"/>
		</g>
		<g>
			<path style="fill:#35495E;" d="M72.15,10.9l-41.807,4.553l-9.494,8.682c0,0-0.171,38.048-0.171,29.129
				c0-23.398,6.727-24.448,31.681-29.034c19.039-3.498,29.379,5.636,29.379,29.034c0,8.919,2.302-25.082,2.302-25.082L72.15,10.9z"
				/>
		</g>
		<g>
			<path style="fill:#2C3E50;" d="M71.016,45.411c-0.083,0-0.167-0.009-0.25-0.028l-4.784-1.08l-5.087,1.082
				c-0.616,0.129-1.215-0.26-1.346-0.874c-0.13-0.613,0.261-1.215,0.874-1.345l5.572-1.186l5.269,1.189
				c0.612,0.138,0.995,0.746,0.857,1.357C72.002,45.054,71.535,45.411,71.016,45.411z"/>
		</g>
		<ellipse style="fill:#2C3E50;" cx="38.653" cy="51.574" rx="4.131" ry="2.064"/>
		<ellipse style="fill:#2C3E50;" cx="65.837" cy="51.574" rx="4.131" ry="2.064"/>
		
			<line style="fill:none;stroke:#2C3E50;stroke-linecap:round;stroke-linejoin:round;stroke-miterlimit:10;" x1="45.772" y1="72.536" x2="58.251" y2="72.536"/>
	</g>
</g>
<g id="Upload-1">
</g>
<g id="Upload-2" style="display:none;">
</g>
</svg>
