<?xml version="1.0" encoding="iso-8859-1"?>
<!-- Generator: Adobe Illustrator 19.1.0, SVG Export Plug-In . SVG Version: 6.00 Build 0)  -->
<svg version="1.1" xmlns="http://www.w3.org/2000/svg" xmlns:xlink="http://www.w3.org/1999/xlink" x="0px" y="0px"
	 viewBox="0 0 106 104.286" style="enable-background:new 0 0 106 104.286;" xml:space="preserve">
<g id="Layer_1">
	<path style="fill:#FCCDB1;" d="M81.485,55.272c0,20.252-13.511,36.669-30.178,36.669S21.129,75.523,21.129,55.272
		S34.64,29.37,51.307,29.37S81.485,35.02,81.485,55.272z"/>
	<ellipse style="fill:#FCCDB1;" cx="19.224" cy="54.232" rx="4.247" ry="7.361"/>
	<ellipse style="fill:#2C3E50;" cx="35.588" cy="54.41" rx="4.283" ry="2.526"/>
	<ellipse style="fill:#FCCDB1;" cx="83.832" cy="54.232" rx="4.247" ry="7.361"/>
	<g>
		<path style="fill:#6D6E71;" d="M39.021,49.852h-6.017c-0.553,0-1-0.448-1-1s0.447-1,1-1h6.017c0.553,0,1,0.448,1,1
			S39.574,49.852,39.021,49.852z"/>
	</g>
	<ellipse style="fill:#2C3E50;" cx="67.497" cy="54.566" rx="4.283" ry="2.526"/>
	<g>
		<path style="fill:#6D6E71;" d="M70.93,50.118h-6.018c-0.553,0-1-0.448-1-1s0.447-1,1-1h6.018c0.553,0,1,0.448,1,1
			S71.483,50.118,70.93,50.118z"/>
	</g>
	<path style="fill:#35495E;stroke:#2C3E50;stroke-linecap:round;stroke-linejoin:round;stroke-miterlimit:10;" d="M42.803,76.944
		c0,0,5.76,1.683,7.794,1.699c2.186,0.017,8.427-1.699,8.427-1.699H42.803z"/>
	<ellipse style="fill:none;stroke:#2C3E50;stroke-miterlimit:10;" cx="67.497" cy="54.565" rx="8.472" ry="5.472"/>
	<ellipse style="fill:none;stroke:#2C3E50;stroke-miterlimit:10;" cx="35.589" cy="54.41" rx="8.472" ry="5.472"/>
	<line style="fill:none;stroke:#2C3E50;stroke-miterlimit:10;" x1="44.061" y1="54.41" x2="59.024" y2="54.41"/>
	<line style="fill:none;stroke:#2C3E50;stroke-miterlimit:10;" x1="75.969" y1="54.565" x2="85.179" y2="47.255"/>
	<line style="fill:none;stroke:#2C3E50;stroke-miterlimit:10;" x1="27.076" y1="54.565" x2="17.867" y2="47.255"/>
	<g>
		<path style="fill:#2C3E50;" d="M53.422,12.153l-25.449,1.633L17.612,31.294l2.835,32.775l0,0l2.939,0.568
			c-3.121-6.017,0,0,0-7.862c0-20.626,12.667-29.103,28.009-23.44c14.636,5.401,28.178,2.814,28.178,23.44
			c0,7.862,3.121,1.845,0,7.862l2.486-0.568l3.12-40.834"/>
	</g>
	<path style="fill:#35495E;stroke:#2C3E50;stroke-linecap:round;stroke-linejoin:round;stroke-miterlimit:10;" d="M59.024,76.944
		c0,0-5.76-1.683-7.794-1.699c-2.186-0.017-8.427,1.699-8.427,1.699H59.024z"/>
</g>
<g id="Upload-1">
</g>
<g id="Upload-2" style="display:none;">
</g>
</svg>
