<?xml version="1.0" encoding="iso-8859-1"?>
<!-- Generator: Adobe Illustrator 19.1.0, SVG Export Plug-In . SVG Version: 6.00 Build 0)  -->
<svg version="1.1" xmlns="http://www.w3.org/2000/svg" xmlns:xlink="http://www.w3.org/1999/xlink" x="0px" y="0px"
	 viewBox="0 0 106 104.286" style="enable-background:new 0 0 106 104.286;" xml:space="preserve">
<g id="Layer_1">
	<g>
		<path style="fill:#FCCDB1;" d="M83.437,59.614c0,20.252-14.057,36.669-31.397,36.669S20.643,79.865,20.643,59.614
			S34.7,33.713,52.04,33.713S83.437,39.362,83.437,59.614z"/>
		<ellipse style="fill:#FCCDB1;" cx="19.738" cy="58.574" rx="4.247" ry="7.361"/>
		<ellipse style="fill:#2C3E50;" cx="36.102" cy="58.752" rx="4.283" ry="2.526"/>
		<ellipse style="fill:#FCCDB1;" cx="84.345" cy="58.574" rx="4.247" ry="7.361"/>
		<g>
			<path style="fill:#7F8C8D;" d="M39.535,54.694h-6.018c-0.828,0-1.5-0.671-1.5-1.5s0.672-1.5,1.5-1.5h6.018
				c0.828,0,1.5,0.671,1.5,1.5S40.363,54.694,39.535,54.694z"/>
		</g>
		<ellipse style="fill:#2C3E50;" cx="68.01" cy="58.908" rx="4.283" ry="2.526"/>
		<g>
			<path style="fill:#7F8C8D;" d="M71.443,54.96h-6.017c-0.828,0-1.5-0.671-1.5-1.5s0.672-1.5,1.5-1.5h6.017
				c0.828,0,1.5,0.671,1.5,1.5S72.272,54.96,71.443,54.96z"/>
		</g>
		<g>
			<path style="fill:#95A5A5;" d="M80.098,13.305l-56.114,0.704l-7.22,21.626l2.973,32.775l0,0l3.082,0.568
				c-3.273-6.017,0,0,0-7.862c0-20.626,13.282-29.103,29.371-23.44c15.347,5.401,29.548,2.814,29.548,23.44
				c0,7.862,3.273,1.845,0,7.862l2.606-0.568l3.271-40.834"/>
		</g>
		<path style="fill:#35495E;stroke:#2C3E50;stroke-linecap:round;stroke-linejoin:round;stroke-miterlimit:10;" d="M42.515,79.815
			c0,0,6.507,2.618,8.805,2.642c2.47,0.026,9.52-2.642,9.52-2.642H42.515z"/>
	</g>
</g>
<g id="Upload-1">
</g>
<g id="Upload-2" style="display:none;">
</g>
</svg>
