<?xml version="1.0" encoding="iso-8859-1"?>
<!-- Generator: Adobe Illustrator 19.1.0, SVG Export Plug-In . SVG Version: 6.00 Build 0)  -->
<svg version="1.1" xmlns="http://www.w3.org/2000/svg" xmlns:xlink="http://www.w3.org/1999/xlink" x="0px" y="0px"
	 viewBox="0 0 106 104.286" style="enable-background:new 0 0 106 104.286;" xml:space="preserve">
<g id="Layer_1">
	<g>
		<path style="fill:#FCCDB1;" d="M84.524,48.627c0,23.368-14.065,42.312-31.416,42.312S21.693,71.995,21.693,48.627
			s6.187-36.726,31.445-36.726C76.274,11.901,84.524,25.259,84.524,48.627z"/>
		<ellipse style="fill:#FCCDB1;" cx="20.829" cy="47.526" rx="4.914" ry="8.518"/>
		<ellipse style="fill:#FCCDB1;" cx="85.171" cy="47.526" rx="4.914" ry="8.518"/>
		<g>
			<path style="fill:#2C3E50;" d="M34.33,42.459c-0.45,0-0.877-0.264-1.064-0.705c-0.251-0.588,0.024-1.267,0.611-1.518l5.903-2.513
				l5.589,2.523c0.583,0.263,0.842,0.949,0.579,1.531c-0.262,0.581-0.947,0.843-1.53,0.579l-4.665-2.106l-4.97,2.115
				C34.635,42.43,34.481,42.459,34.33,42.459z"/>
		</g>
		<ellipse style="fill:#2C3E50;" cx="67.931" cy="47.913" rx="3.145" ry="2.923"/>
		<g>
			<path style="fill:#2C3E50;" d="M62.146,42.459c-0.45,0-0.877-0.264-1.064-0.705c-0.251-0.588,0.024-1.267,0.611-1.518
				l5.903-2.513l5.589,2.523c0.583,0.263,0.842,0.949,0.579,1.531c-0.262,0.581-0.946,0.843-1.53,0.579l-4.665-2.106l-4.97,2.115
				C62.451,42.43,62.298,42.459,62.146,42.459z"/>
		</g>
		<ellipse style="fill:#2C3E50;" cx="39.611" cy="47.913" rx="3.145" ry="2.923"/>
		<g>
			<polygon style="fill:#2C3E50;" points="53.295,64.34 43.455,68.197 39.08,73.597 45.794,75.911 50.591,70.897 53.295,71.283 			
				"/>
			<polygon style="fill:#2C3E50;" points="52.922,64.34 62.762,68.197 67.137,73.597 58.484,74.592 55.627,70.897 52.922,71.283 			
				"/>
		</g>
		<g>
			<path style="fill:#35495E;" d="M78.018,10.632H30.569l-9.03,6.767c0,0-0.175,38.809-0.175,29.712
				c0-15.508,6.256-27.914,15.102-30.982c4.768-1.654,10.287,3.261,15.987,3.148c5.429-0.108,10.53-4.383,14.972-3.105
				c9.673,2.784,14.056,10.322,16.221,30.939c0.95,9.047,1.061-30.693,1.061-30.693L78.018,10.632z"/>
		</g>
		<polygon style="fill:#2C3E50;" points="20.829,56.044 28.834,83.24 53.883,93.653 79.1,82.083 85.171,56.044 66.234,69.355 
			60.424,73.597 52.453,76.297 42.756,73.597 28.834,64.34 		"/>
	</g>
</g>
<g id="Upload-1">
</g>
<g id="Upload-2" style="display:none;">
</g>
</svg>
