<?xml version="1.0" encoding="iso-8859-1"?>
<!-- Generator: Adobe Illustrator 19.1.0, SVG Export Plug-In . SVG Version: 6.00 Build 0)  -->
<svg version="1.1" xmlns="http://www.w3.org/2000/svg" xmlns:xlink="http://www.w3.org/1999/xlink" x="0px" y="0px"
	 viewBox="0 0 106 104.286" style="enable-background:new 0 0 106 104.286;" xml:space="preserve">
<g id="Layer_1">
	<g>
		<path style="fill:#FCCDB1;" d="M86.667,49.16c0,24.956-15.021,45.187-33.551,45.187S19.565,74.116,19.565,49.16
			S26.172,9.938,53.147,9.938C71.677,9.938,86.667,24.204,86.667,49.16z"/>
		<ellipse style="fill:#FCCDB1;" cx="18.642" cy="47.984" rx="5.248" ry="9.096"/>
		<ellipse style="fill:#FCCDB1;" cx="87.358" cy="47.984" rx="5.248" ry="9.096"/>
		<g>
			<path style="fill:#2C3E50;" d="M33.061,42.573c-0.48,0-0.936-0.282-1.137-0.752c-0.268-0.628,0.025-1.353,0.653-1.621
				l6.304-2.684l5.969,2.694c0.623,0.281,0.899,1.013,0.618,1.635c-0.28,0.621-1.011,0.9-1.634,0.618l-4.982-2.249l-5.307,2.259
				C33.387,42.541,33.223,42.573,33.061,42.573z"/>
		</g>
		<ellipse style="fill:#2C3E50;" cx="68.946" cy="48.398" rx="3.358" ry="3.121"/>
		<g>
			<path style="fill:#2C3E50;" d="M62.767,42.573c-0.48,0-0.936-0.282-1.137-0.752c-0.268-0.628,0.025-1.353,0.653-1.621
				l6.304-2.684l5.97,2.694c0.623,0.281,0.899,1.012,0.618,1.635c-0.281,0.621-1.01,0.901-1.634,0.618l-4.983-2.249l-5.307,2.259
				C63.093,42.541,62.929,42.573,62.767,42.573z"/>
		</g>
		<ellipse style="fill:#2C3E50;" cx="38.702" cy="48.398" rx="3.358" ry="3.121"/>
		<polygon style="fill:#2C3E50;" points="19.565,45.276 20.574,21.043 30.504,16.057 		"/>
		<polyline style="fill:#2C3E50;" points="74.049,17.814 86.667,45.044 83.978,22.801 		"/>
		<g>
			<polygon style="fill:#2C3E50;" points="53.316,65.941 42.806,70.06 38.134,75.827 45.304,75.827 50.427,72.944 53.316,70.884 			
				"/>
			<polygon style="fill:#2C3E50;" points="52.917,65.941 63.426,70.06 68.098,75.827 60.928,75.827 55.805,72.944 52.917,70.884 			
				"/>
		</g>
		<ellipse style="fill:none;stroke:#2C3E50;stroke-miterlimit:10;" cx="38.702" cy="47.78" rx="6.876" ry="5.73"/>
		<ellipse style="fill:none;stroke:#2C3E50;stroke-miterlimit:10;" cx="68.946" cy="48.398" rx="6.876" ry="5.73"/>
		<line style="fill:none;stroke:#2C3E50;stroke-miterlimit:10;" x1="31.825" y1="47.78" x2="21.253" y2="40.101"/>
		<line style="fill:none;stroke:#2C3E50;stroke-miterlimit:10;" x1="75.822" y1="48.398" x2="85.358" y2="42.051"/>
		<line style="fill:none;stroke:#2C3E50;stroke-miterlimit:10;" x1="45.578" y1="49.016" x2="62.069" y2="49.016"/>
	</g>
</g>
<g id="Upload-1">
</g>
<g id="Upload-2" style="display:none;">
</g>
</svg>
